<svg width="18" height="17" viewBox="0 0 18 17" fill="none" xmlns="http://www.w3.org/2000/svg">
<path d="M10.667 5.1665H11.5003C11.7213 5.1665 11.9333 5.07871 12.0896 4.92243C12.2459 4.76615 12.3337 4.55418 12.3337 4.33317C12.3337 4.11216 12.2459 3.9002 12.0896 3.74392C11.9333 3.58764 11.7213 3.49984 11.5003 3.49984H10.667C10.446 3.49984 10.234 3.58764 10.0777 3.74392C9.92146 3.9002 9.83366 4.11216 9.83366 4.33317C9.83366 4.55418 9.92146 4.76615 10.0777 4.92243C10.234 5.07871 10.446 5.1665 10.667 5.1665ZM10.667 8.49984H11.5003C11.7213 8.49984 11.9333 8.41204 12.0896 8.25576C12.2459 8.09948 12.3337 7.88752 12.3337 7.6665C12.3337 7.44549 12.2459 7.23353 12.0896 7.07725C11.9333 6.92097 11.7213 6.83317 11.5003 6.83317H10.667C10.446 6.83317 10.234 6.92097 10.0777 7.07725C9.92146 7.23353 9.83366 7.44549 9.83366 7.6665C9.83366 7.88752 9.92146 8.09948 10.0777 8.25576C10.234 8.41204 10.446 8.49984 10.667 8.49984ZM6.50033 5.1665H7.33366C7.55467 5.1665 7.76663 5.07871 7.92291 4.92243C8.0792 4.76615 8.16699 4.55418 8.16699 4.33317C8.16699 4.11216 8.0792 3.9002 7.92291 3.74392C7.76663 3.58764 7.55467 3.49984 7.33366 3.49984H6.50033C6.27931 3.49984 6.06735 3.58764 5.91107 3.74392C5.75479 3.9002 5.66699 4.11216 5.66699 4.33317C5.66699 4.55418 5.75479 4.76615 5.91107 4.92243C6.06735 5.07871 6.27931 5.1665 6.50033 5.1665ZM6.50033 8.49984H7.33366C7.55467 8.49984 7.76663 8.41204 7.92291 8.25576C8.0792 8.09948 8.16699 7.88752 8.16699 7.6665C8.16699 7.44549 8.0792 7.23353 7.92291 7.07725C7.76663 6.92097 7.55467 6.83317 7.33366 6.83317H6.50033C6.27931 6.83317 6.06735 6.92097 5.91107 7.07725C5.75479 7.23353 5.66699 7.44549 5.66699 7.6665C5.66699 7.88752 5.75479 8.09948 5.91107 8.25576C6.06735 8.41204 6.27931 8.49984 6.50033 8.49984ZM16.5003 15.1665H15.667V0.999837C15.667 0.778823 15.5792 0.566862 15.4229 0.410582C15.2666 0.254301 15.0547 0.166504 14.8337 0.166504H3.16699C2.94598 0.166504 2.73402 0.254301 2.57774 0.410582C2.42146 0.566862 2.33366 0.778823 2.33366 0.999837V15.1665H1.50033C1.27931 15.1665 1.06735 15.2543 0.91107 15.4106C0.75479 15.5669 0.666992 15.7788 0.666992 15.9998C0.666992 16.2209 0.75479 16.4328 0.91107 16.5891C1.06735 16.7454 1.27931 16.8332 1.50033 16.8332H16.5003C16.7213 16.8332 16.9333 16.7454 17.0896 16.5891C17.2459 16.4328 17.3337 16.2209 17.3337 15.9998C17.3337 15.7788 17.2459 15.5669 17.0896 15.4106C16.9333 15.2543 16.7213 15.1665 16.5003 15.1665ZM9.83366 15.1665H8.16699V11.8332H9.83366V15.1665ZM14.0003 15.1665H11.5003V10.9998C11.5003 10.7788 11.4125 10.5669 11.2562 10.4106C11.1 10.2543 10.888 10.1665 10.667 10.1665H7.33366C7.11265 10.1665 6.90068 10.2543 6.7444 10.4106C6.58812 10.5669 6.50033 10.7788 6.50033 10.9998V15.1665H4.00033V1.83317H14.0003V15.1665Z" fill="#9E9E9E"/>
</svg>
