<svg width="14" height="17" viewBox="0 0 14 17" fill="none" xmlns="http://www.w3.org/2000/svg">
<path d="M4.49967 6.83317H5.33301C5.55402 6.83317 5.76598 6.74537 5.92226 6.58909C6.07854 6.43281 6.16634 6.22085 6.16634 5.99984C6.16634 5.77882 6.07854 5.56686 5.92226 5.41058C5.76598 5.2543 5.55402 5.1665 5.33301 5.1665H4.49967C4.27866 5.1665 4.0667 5.2543 3.91042 5.41058C3.75414 5.56686 3.66634 5.77882 3.66634 5.99984C3.66634 6.22085 3.75414 6.43281 3.91042 6.58909C4.0667 6.74537 4.27866 6.83317 4.49967 6.83317ZM4.49967 8.49984C4.27866 8.49984 4.0667 8.58764 3.91042 8.74392C3.75414 8.9002 3.66634 9.11216 3.66634 9.33317C3.66634 9.55418 3.75414 9.76615 3.91042 9.92243C4.0667 10.0787 4.27866 10.1665 4.49967 10.1665H9.49967C9.72069 10.1665 9.93265 10.0787 10.0889 9.92243C10.2452 9.76615 10.333 9.55418 10.333 9.33317C10.333 9.11216 10.2452 8.9002 10.0889 8.74392C9.93265 8.58764 9.72069 8.49984 9.49967 8.49984H4.49967ZM13.6663 5.94984C13.6577 5.87328 13.6409 5.79786 13.6163 5.72484V5.64984C13.5763 5.56415 13.5228 5.48539 13.458 5.4165L8.45801 0.416504C8.38912 0.351684 8.31036 0.298238 8.22467 0.25817C8.1998 0.254637 8.17455 0.254637 8.14967 0.25817C8.06502 0.209622 7.97153 0.178457 7.87467 0.166504H2.83301C2.16997 0.166504 1.53408 0.429896 1.06524 0.898737C0.5964 1.36758 0.333008 2.00346 0.333008 2.6665V14.3332C0.333008 14.9962 0.5964 15.6321 1.06524 16.1009C1.53408 16.5698 2.16997 16.8332 2.83301 16.8332H11.1663C11.8294 16.8332 12.4653 16.5698 12.9341 16.1009C13.4029 15.6321 13.6663 14.9962 13.6663 14.3332V5.99984C13.6663 5.99984 13.6663 5.99984 13.6663 5.94984ZM8.66634 3.00817L10.8247 5.1665H9.49967C9.27866 5.1665 9.0667 5.07871 8.91042 4.92243C8.75414 4.76615 8.66634 4.55418 8.66634 4.33317V3.00817ZM11.9997 14.3332C11.9997 14.5542 11.9119 14.7661 11.7556 14.9224C11.5993 15.0787 11.3874 15.1665 11.1663 15.1665H2.83301C2.61199 15.1665 2.40003 15.0787 2.24375 14.9224C2.08747 14.7661 1.99967 14.5542 1.99967 14.3332V2.6665C1.99967 2.44549 2.08747 2.23353 2.24375 2.07725C2.40003 1.92097 2.61199 1.83317 2.83301 1.83317H6.99967V4.33317C6.99967 4.99621 7.26307 5.6321 7.73191 6.10094C8.20075 6.56978 8.83663 6.83317 9.49967 6.83317H11.9997V14.3332ZM9.49967 11.8332H4.49967C4.27866 11.8332 4.0667 11.921 3.91042 12.0772C3.75414 12.2335 3.66634 12.4455 3.66634 12.6665C3.66634 12.8875 3.75414 13.0995 3.91042 13.2558C4.0667 13.412 4.27866 13.4998 4.49967 13.4998H9.49967C9.72069 13.4998 9.93265 13.412 10.0889 13.2558C10.2452 13.0995 10.333 12.8875 10.333 12.6665C10.333 12.4455 10.2452 12.2335 10.0889 12.0772C9.93265 11.921 9.72069 11.8332 9.49967 11.8332Z" fill="#9E9E9E"/>
</svg>
