<svg width="18" height="17" viewBox="0 0 18 17" fill="none" xmlns="http://www.w3.org/2000/svg">
<path d="M14.8337 3.91683H12.3337V3.0835C12.3337 2.42045 12.0703 1.78457 11.6014 1.31573C11.1326 0.846888 10.4967 0.583496 9.83366 0.583496H8.16699C7.50395 0.583496 6.86807 0.846888 6.39923 1.31573C5.93038 1.78457 5.66699 2.42045 5.66699 3.0835V3.91683H3.16699C2.50395 3.91683 1.86807 4.18022 1.39923 4.64906C0.930384 5.1179 0.666992 5.75379 0.666992 6.41683V13.9168C0.666992 14.5799 0.930384 15.2158 1.39923 15.6846C1.86807 16.1534 2.50395 16.4168 3.16699 16.4168H14.8337C15.4967 16.4168 16.1326 16.1534 16.6014 15.6846C17.0703 15.2158 17.3337 14.5799 17.3337 13.9168V6.41683C17.3337 5.75379 17.0703 5.1179 16.6014 4.64906C16.1326 4.18022 15.4967 3.91683 14.8337 3.91683ZM7.33366 3.0835C7.33366 2.86248 7.42146 2.65052 7.57774 2.49424C7.73402 2.33796 7.94598 2.25016 8.16699 2.25016H9.83366C10.0547 2.25016 10.2666 2.33796 10.4229 2.49424C10.5792 2.65052 10.667 2.86248 10.667 3.0835V3.91683H7.33366V3.0835ZM15.667 13.9168C15.667 14.1378 15.5792 14.3498 15.4229 14.5061C15.2666 14.6624 15.0547 14.7502 14.8337 14.7502H3.16699C2.94598 14.7502 2.73402 14.6624 2.57774 14.5061C2.42146 14.3498 2.33366 14.1378 2.33366 13.9168V9.7085H4.83366V10.5835C4.83366 10.8045 4.92146 11.0165 5.07774 11.1728C5.23402 11.329 5.44598 11.4168 5.66699 11.4168C5.88801 11.4168 6.09997 11.329 6.25625 11.1728C6.41253 11.0165 6.50033 10.8045 6.50033 10.5835V9.7085H11.5003V10.5835C11.5003 10.8045 11.5881 11.0165 11.7444 11.1728C11.9007 11.329 12.1126 11.4168 12.3337 11.4168C12.5547 11.4168 12.7666 11.329 12.9229 11.1728C13.0792 11.0165 13.167 10.8045 13.167 10.5835V9.7085H15.667V13.9168ZM15.667 8.0835H2.33366V6.41683C2.33366 6.19582 2.42146 5.98385 2.57774 5.82757C2.73402 5.67129 2.94598 5.5835 3.16699 5.5835H14.8337C15.0547 5.5835 15.2666 5.67129 15.4229 5.82757C15.5792 5.98385 15.667 6.19582 15.667 6.41683V8.0835Z" fill="#9E9E9E"/>
</svg>
