<svg width="16" height="17" viewBox="0 0 16 17" fill="none" xmlns="http://www.w3.org/2000/svg">
<path d="M4.90833 9.57484C4.83023 9.65231 4.76823 9.74447 4.72592 9.84602C4.68362 9.94757 4.66183 10.0565 4.66183 10.1665C4.66183 10.2765 4.68362 10.3854 4.72592 10.487C4.76823 10.5885 4.83023 10.6807 4.90833 10.7582L7.40833 13.2582C7.4858 13.3363 7.57797 13.3983 7.67952 13.4406C7.78107 13.4829 7.88999 13.5047 8 13.5047C8.11001 13.5047 8.21893 13.4829 8.32048 13.4406C8.42203 13.3983 8.5142 13.3363 8.59167 13.2582L11.0917 10.7582C11.2486 10.6013 11.3367 10.3884 11.3367 10.1665C11.3367 9.94459 11.2486 9.73176 11.0917 9.57484C10.9347 9.41792 10.7219 9.32976 10.5 9.32976C10.2781 9.32976 10.0653 9.41792 9.90833 9.57484L8.83333 10.6582V0.999837C8.83333 0.778823 8.74554 0.566862 8.58926 0.410582C8.43297 0.254301 8.22101 0.166504 8 0.166504C7.77899 0.166504 7.56702 0.254301 7.41074 0.410582C7.25446 0.566862 7.16667 0.778823 7.16667 0.999837V10.6582L6.09167 9.57484C6.0142 9.49673 5.92203 9.43474 5.82048 9.39243C5.71893 9.35012 5.61001 9.32834 5.5 9.32834C5.38999 9.32834 5.28107 9.35012 5.17952 9.39243C5.07797 9.43474 4.9858 9.49673 4.90833 9.57484ZM13 5.99984H11.3333C11.1123 5.99984 10.9004 6.08764 10.7441 6.24392C10.5878 6.4002 10.5 6.61216 10.5 6.83317C10.5 7.05418 10.5878 7.26615 10.7441 7.42243C10.9004 7.57871 11.1123 7.6665 11.3333 7.6665H13C13.221 7.6665 13.433 7.7543 13.5893 7.91058C13.7455 8.06686 13.8333 8.27882 13.8333 8.49984V14.3332C13.8333 14.5542 13.7455 14.7661 13.5893 14.9224C13.433 15.0787 13.221 15.1665 13 15.1665H3C2.77899 15.1665 2.56702 15.0787 2.41074 14.9224C2.25446 14.7661 2.16667 14.5542 2.16667 14.3332V8.49984C2.16667 8.27882 2.25446 8.06686 2.41074 7.91058C2.56702 7.7543 2.77899 7.6665 3 7.6665H4.66667C4.88768 7.6665 5.09964 7.57871 5.25592 7.42243C5.4122 7.26615 5.5 7.05418 5.5 6.83317C5.5 6.61216 5.4122 6.4002 5.25592 6.24392C5.09964 6.08764 4.88768 5.99984 4.66667 5.99984H3C2.33696 5.99984 1.70107 6.26323 1.23223 6.73207C0.763392 7.20091 0.5 7.8368 0.5 8.49984V14.3332C0.5 14.9962 0.763392 15.6321 1.23223 16.1009C1.70107 16.5698 2.33696 16.8332 3 16.8332H13C13.663 16.8332 14.2989 16.5698 14.7678 16.1009C15.2366 15.6321 15.5 14.9962 15.5 14.3332V8.49984C15.5 7.8368 15.2366 7.20091 14.7678 6.73207C14.2989 6.26323 13.663 5.99984 13 5.99984Z" fill="#9E9E9E"/>
</svg>
