<svg width="18" height="17" viewBox="0 0 18 17" fill="none" xmlns="http://www.w3.org/2000/svg">
<path d="M9.00033 3.49984C8.77931 3.49984 8.56735 3.58764 8.41107 3.74392C8.25479 3.9002 8.16699 4.11216 8.16699 4.33317V12.6665C8.16699 12.8875 8.25479 13.0995 8.41107 13.2558C8.56735 13.412 8.77931 13.4998 9.00033 13.4998C9.22134 13.4998 9.4333 13.412 9.58958 13.2558C9.74586 13.0995 9.83366 12.8875 9.83366 12.6665V4.33317C9.83366 4.11216 9.74586 3.9002 9.58958 3.74392C9.4333 3.58764 9.22134 3.49984 9.00033 3.49984ZM4.83366 8.49984C4.61265 8.49984 4.40068 8.58764 4.2444 8.74392C4.08812 8.9002 4.00033 9.11216 4.00033 9.33317V12.6665C4.00033 12.8875 4.08812 13.0995 4.2444 13.2558C4.40068 13.412 4.61265 13.4998 4.83366 13.4998C5.05467 13.4998 5.26663 13.412 5.42291 13.2558C5.5792 13.0995 5.66699 12.8875 5.66699 12.6665V9.33317C5.66699 9.11216 5.5792 8.9002 5.42291 8.74392C5.26663 8.58764 5.05467 8.49984 4.83366 8.49984ZM13.167 6.83317C12.946 6.83317 12.734 6.92097 12.5777 7.07725C12.4215 7.23353 12.3337 7.44549 12.3337 7.6665V12.6665C12.3337 12.8875 12.4215 13.0995 12.5777 13.2558C12.734 13.412 12.946 13.4998 13.167 13.4998C13.388 13.4998 13.6 13.412 13.7562 13.2558C13.9125 13.0995 14.0003 12.8875 14.0003 12.6665V7.6665C14.0003 7.44549 13.9125 7.23353 13.7562 7.07725C13.6 6.92097 13.388 6.83317 13.167 6.83317ZM14.8337 0.166504H3.16699C2.50395 0.166504 1.86807 0.429896 1.39923 0.898737C0.930384 1.36758 0.666992 2.00346 0.666992 2.6665V14.3332C0.666992 14.9962 0.930384 15.6321 1.39923 16.1009C1.86807 16.5698 2.50395 16.8332 3.16699 16.8332H14.8337C15.4967 16.8332 16.1326 16.5698 16.6014 16.1009C17.0703 15.6321 17.3337 14.9962 17.3337 14.3332V2.6665C17.3337 2.00346 17.0703 1.36758 16.6014 0.898737C16.1326 0.429896 15.4967 0.166504 14.8337 0.166504ZM15.667 14.3332C15.667 14.5542 15.5792 14.7661 15.4229 14.9224C15.2666 15.0787 15.0547 15.1665 14.8337 15.1665H3.16699C2.94598 15.1665 2.73402 15.0787 2.57774 14.9224C2.42146 14.7661 2.33366 14.5542 2.33366 14.3332V2.6665C2.33366 2.44549 2.42146 2.23353 2.57774 2.07725C2.73402 1.92097 2.94598 1.83317 3.16699 1.83317H14.8337C15.0547 1.83317 15.2666 1.92097 15.4229 2.07725C15.5792 2.23353 15.667 2.44549 15.667 2.6665V14.3332Z" fill="#9E9E9E"/>
</svg>
