<svg width="18" height="17" viewBox="0 0 18 17" fill="none" xmlns="http://www.w3.org/2000/svg">
<path d="M12.0914 9.09169C12.9084 8.44891 13.5047 7.56746 13.7975 6.56997C14.0902 5.57249 14.0647 4.50858 13.7246 3.52625C13.3845 2.54391 12.7466 1.69202 11.8998 1.08907C11.053 0.486122 10.0393 0.162109 8.99975 0.162109C7.96021 0.162109 6.94652 0.486122 6.09969 1.08907C5.25287 1.69202 4.61504 2.54391 4.27493 3.52625C3.93482 4.50858 3.90935 5.57249 4.20205 6.56997C4.49476 7.56746 5.09109 8.44891 5.90809 9.09169C4.50815 9.65256 3.28666 10.5828 2.37383 11.7833C1.461 12.9838 0.891056 14.4094 0.724753 15.9084C0.712715 16.0178 0.72235 16.1285 0.753108 16.2342C0.783865 16.3399 0.835143 16.4386 0.904013 16.5245C1.0431 16.6979 1.24541 16.809 1.46642 16.8334C1.68743 16.8577 1.90905 16.7932 2.08252 16.6541C2.256 16.515 2.36711 16.3127 2.39142 16.0917C2.57441 14.4627 3.35116 12.9582 4.57327 11.8657C5.79538 10.7732 7.37717 10.1692 9.01642 10.1692C10.6557 10.1692 12.2375 10.7732 13.4596 11.8657C14.6817 12.9582 15.4584 14.4627 15.6414 16.0917C15.6641 16.2965 15.7618 16.4856 15.9157 16.6225C16.0696 16.7595 16.2687 16.8346 16.4748 16.8334H16.5664C16.7849 16.8082 16.9845 16.6978 17.1219 16.5261C17.2593 16.3544 17.3232 16.1353 17.2998 15.9167C17.1327 14.4135 16.5596 12.9842 15.6421 11.7819C14.7246 10.5795 13.4972 9.64959 12.0914 9.09169ZM8.99975 8.50002C8.34048 8.50002 7.69602 8.30453 7.14785 7.93825C6.59969 7.57198 6.17245 7.05139 5.92015 6.4423C5.66786 5.83321 5.60185 5.16299 5.73047 4.51639C5.85909 3.86979 6.17656 3.27584 6.64273 2.80967C7.10891 2.34349 7.70285 2.02602 8.34945 1.89741C8.99606 1.76879 9.66628 1.8348 10.2754 2.08709C10.8845 2.33938 11.405 2.76662 11.7713 3.31479C12.1376 3.86295 12.3331 4.50742 12.3331 5.16669C12.3331 6.05074 11.9819 6.89859 11.3568 7.52371C10.7317 8.14883 9.88381 8.50002 8.99975 8.50002Z" fill="#9E9E9E"/>
</svg>
