<svg width="20" height="15" viewBox="0 0 20 15" fill="none" xmlns="http://www.w3.org/2000/svg">
<path d="M10.2497 7.68317C10.6943 7.29828 11.051 6.82224 11.2954 6.28736C11.5398 5.75247 11.6663 5.17126 11.6663 4.58317C11.6663 3.4781 11.2274 2.41829 10.446 1.63689C9.66455 0.855491 8.60474 0.416504 7.49967 0.416504C6.39461 0.416504 5.3348 0.855491 4.5534 1.63689C3.77199 2.41829 3.33301 3.4781 3.33301 4.58317C3.333 5.17126 3.45951 5.75247 3.70395 6.28736C3.94838 6.82224 4.30503 7.29828 4.74967 7.68317C3.58312 8.21141 2.5934 9.06445 1.89882 10.1403C1.20425 11.2161 0.834234 12.4693 0.833008 13.7498C0.833008 13.9709 0.920805 14.1828 1.07709 14.3391C1.23337 14.4954 1.44533 14.5832 1.66634 14.5832C1.88735 14.5832 2.09932 14.4954 2.2556 14.3391C2.41188 14.1828 2.49967 13.9709 2.49967 13.7498C2.49967 12.4238 3.02646 11.152 3.96414 10.2143C4.90182 9.27662 6.17359 8.74984 7.49967 8.74984C8.82576 8.74984 10.0975 9.27662 11.0352 10.2143C11.9729 11.152 12.4997 12.4238 12.4997 13.7498C12.4997 13.9709 12.5875 14.1828 12.7438 14.3391C12.9 14.4954 13.112 14.5832 13.333 14.5832C13.554 14.5832 13.766 14.4954 13.9223 14.3391C14.0785 14.1828 14.1663 13.9709 14.1663 13.7498C14.1651 12.4693 13.7951 11.2161 13.1005 10.1403C12.406 9.06445 11.4162 8.21141 10.2497 7.68317ZM7.49967 7.08317C7.00522 7.08317 6.52187 6.93655 6.11075 6.66185C5.69963 6.38714 5.37919 5.9967 5.18998 5.53988C5.00076 5.08306 4.95125 4.5804 5.04771 4.09545C5.14417 3.61049 5.38228 3.16504 5.73191 2.8154C6.08154 2.46577 6.527 2.22767 7.01195 2.13121C7.4969 2.03474 7.99957 2.08425 8.45638 2.27347C8.9132 2.46269 9.30364 2.78312 9.57835 3.19425C9.85305 3.60537 9.99967 4.08872 9.99967 4.58317C9.99967 5.24621 9.73628 5.8821 9.26744 6.35094C8.7986 6.81978 8.16272 7.08317 7.49967 7.08317ZM15.6163 7.34984C16.1496 6.74928 16.498 6.00738 16.6195 5.21345C16.741 4.41952 16.6304 3.6074 16.3011 2.87484C15.9718 2.14228 15.4378 1.5205 14.7634 1.08436C14.089 0.648212 13.3028 0.416289 12.4997 0.416504C12.2787 0.416504 12.0667 0.504301 11.9104 0.660582C11.7541 0.816862 11.6663 1.02882 11.6663 1.24984C11.6663 1.47085 11.7541 1.68281 11.9104 1.83909C12.0667 1.99537 12.2787 2.08317 12.4997 2.08317C13.1627 2.08317 13.7986 2.34656 14.2674 2.8154C14.7363 3.28425 14.9997 3.92013 14.9997 4.58317C14.9985 5.02087 14.8824 5.45059 14.6631 5.82936C14.4437 6.20812 14.1287 6.52266 13.7497 6.7415C13.6261 6.81277 13.5229 6.91456 13.45 7.03712C13.377 7.15968 13.3367 7.29892 13.333 7.4415C13.3295 7.58297 13.3621 7.723 13.4277 7.84839C13.4933 7.97377 13.5898 8.08038 13.708 8.15817L14.033 8.37484L14.1413 8.43317C15.1458 8.9096 15.9933 9.66316 16.5838 10.6051C17.1744 11.547 17.4835 12.6381 17.4747 13.7498C17.4747 13.9709 17.5625 14.1828 17.7188 14.3391C17.875 14.4954 18.087 14.5832 18.308 14.5832C18.529 14.5832 18.741 14.4954 18.8973 14.3391C19.0535 14.1828 19.1413 13.9709 19.1413 13.7498C19.1482 12.471 18.8279 11.2117 18.2109 10.0916C17.5939 8.9714 16.7008 8.0276 15.6163 7.34984Z" fill="#9E9E9E"/>
</svg>
