<svg width="41" height="40" viewBox="0 0 41 40" fill="none" xmlns="http://www.w3.org/2000/svg">
<rect x="0.5" width="40" height="40" rx="20" fill="#FDF7E0"/>
<path d="M23.5981 20.6338L21.5 19.4228V15C21.5 14.7348 21.3946 14.4804 21.2071 14.2929C21.0196 14.1054 20.7652 14 20.5 14C20.2348 14 19.9804 14.1054 19.7929 14.2929C19.6054 14.4804 19.5 14.7348 19.5 15V20C19.5 20.1756 19.5461 20.3481 19.6339 20.5001C19.7217 20.6522 19.8479 20.7784 20 20.8662L22.5981 22.3662C22.7119 22.432 22.8375 22.4746 22.9678 22.4918C23.098 22.509 23.2304 22.5004 23.3573 22.4664C23.4842 22.4324 23.6032 22.3737 23.7074 22.2938C23.8117 22.2138 23.8991 22.114 23.9648 22.0003C24.0305 21.8865 24.0731 21.7608 24.0902 21.6306C24.1073 21.5003 24.0986 21.368 24.0646 21.2411C24.0305 21.1142 23.9718 20.9952 23.8918 20.891C23.8117 20.7868 23.712 20.6994 23.5981 20.6338ZM20.5 10C18.5222 10 16.5888 10.5865 14.9443 11.6853C13.2998 12.7841 12.0181 14.3459 11.2612 16.1732C10.5043 18.0004 10.3063 20.0111 10.6922 21.9509C11.078 23.8907 12.0304 25.6725 13.4289 27.0711C14.8275 28.4696 16.6093 29.422 18.5491 29.8079C20.4889 30.1937 22.4996 29.9957 24.3268 29.2388C26.1541 28.4819 27.7159 27.2002 28.8147 25.5557C29.9135 23.9112 30.5 21.9778 30.5 20C30.4971 17.3487 29.4425 14.8069 27.5678 12.9322C25.6931 11.0575 23.1513 10.0029 20.5 10ZM20.5 28C18.9178 28 17.371 27.5308 16.0554 26.6518C14.7398 25.7727 13.7145 24.5233 13.109 23.0615C12.5035 21.5997 12.345 19.9911 12.6537 18.4393C12.9624 16.8874 13.7243 15.462 14.8432 14.3431C15.962 13.2243 17.3874 12.4624 18.9393 12.1537C20.4911 11.845 22.0997 12.0035 23.5615 12.609C25.0233 13.2145 26.2727 14.2398 27.1518 15.5554C28.0308 16.871 28.5 18.4177 28.5 20C28.4976 22.121 27.6539 24.1544 26.1542 25.6542C24.6544 27.1539 22.621 27.9976 20.5 28Z" fill="#F1AD00"/>
</svg>
