<svg width="80" height="80" viewBox="0 0 80 80" fill="none" xmlns="http://www.w3.org/2000/svg">
<rect width="80" height="80" rx="40" fill="#EDF9E8"/>
<path d="M56.7751 28.0251C56.5427 27.7908 56.2662 27.6048 55.9616 27.4779C55.6569 27.351 55.3301 27.2856 55.0001 27.2856C54.6701 27.2856 54.3433 27.351 54.0387 27.4779C53.734 27.6048 53.4575 27.7908 53.2251 28.0251L34.6001 46.6751L26.7751 38.8251C26.5338 38.592 26.249 38.4088 25.9368 38.2857C25.6247 38.1627 25.2914 38.1024 24.9559 38.1082C24.6205 38.114 24.2894 38.1858 23.9818 38.3196C23.6741 38.4533 23.3957 38.6463 23.1626 38.8876C22.9295 39.1289 22.7462 39.4138 22.6232 39.7259C22.5002 40.0381 22.4399 40.3714 22.4457 40.7068C22.4515 41.0423 22.5233 41.3733 22.6571 41.681C22.7908 41.9887 22.9838 42.267 23.2251 42.5001L32.8251 52.1001C33.0575 52.3345 33.334 52.5204 33.6387 52.6474C33.9433 52.7743 34.2701 52.8396 34.6001 52.8396C34.9301 52.8396 35.2569 52.7743 35.5616 52.6474C35.8662 52.5204 36.1427 52.3345 36.3751 52.1001L56.7751 31.7001C57.0289 31.466 57.2314 31.1819 57.3699 30.8657C57.5084 30.5494 57.5799 30.2079 57.5799 29.8626C57.5799 29.5174 57.5084 29.1759 57.3699 28.8596C57.2314 28.5434 57.0289 28.2592 56.7751 28.0251Z" fill="#55BA31"/>
</svg>
