<svg width="80" height="80" viewBox="0 0 80 80" fill="none" xmlns="http://www.w3.org/2000/svg">
<rect width="80" height="80" rx="40" fill="#FDF7E0"/>
<path d="M38.225 48.225C38.1175 48.3438 38.0173 48.469 37.925 48.6C37.8304 48.7394 37.7547 48.8907 37.7 49.05C37.6279 49.1917 37.5774 49.3434 37.55 49.5C37.5377 49.6664 37.5377 49.8336 37.55 50C37.5416 50.3279 37.6101 50.6533 37.75 50.95C37.8623 51.2602 38.0414 51.542 38.2747 51.7753C38.508 52.0086 38.7898 52.1877 39.1 52.3C39.3993 52.4323 39.7228 52.5006 40.05 52.5006C40.3772 52.5006 40.7008 52.4323 41 52.3C41.3103 52.1877 41.592 52.0086 41.8253 51.7753C42.0586 51.542 42.2377 51.2602 42.35 50.95C42.461 50.646 42.512 50.3234 42.5 50C42.5019 49.671 42.4389 49.3448 42.3144 49.0402C42.19 48.7356 42.0067 48.4586 41.775 48.225C41.5426 47.9907 41.2661 47.8047 40.9615 47.6778C40.6568 47.5508 40.33 47.4855 40 47.4855C39.67 47.4855 39.3432 47.5508 39.0386 47.6778C38.7339 47.8047 38.4574 47.9907 38.225 48.225ZM40 15C35.0555 15 30.222 16.4662 26.1108 19.2133C21.9995 21.9603 18.7952 25.8648 16.903 30.4329C15.0108 35.0011 14.5157 40.0277 15.4804 44.8773C16.445 49.7268 18.826 54.1814 22.3223 57.6777C25.8187 61.174 30.2732 63.555 35.1228 64.5196C39.9723 65.4843 44.9989 64.9892 49.5671 63.097C54.1353 61.2048 58.0397 58.0005 60.7867 53.8893C63.5338 49.778 65 44.9445 65 40C65 36.717 64.3534 33.4661 63.097 30.4329C61.8406 27.3998 59.9991 24.6438 57.6777 22.3223C55.3562 20.0009 52.6002 18.1594 49.5671 16.903C46.534 15.6466 43.2831 15 40 15ZM40 60C36.0444 60 32.1776 58.827 28.8886 56.6294C25.5996 54.4318 23.0362 51.3082 21.5224 47.6537C20.0087 43.9991 19.6126 39.9778 20.3843 36.0982C21.156 32.2186 23.0608 28.6549 25.8579 25.8579C28.6549 23.0608 32.2186 21.156 36.0982 20.3843C39.9778 19.6126 43.9992 20.0087 47.6537 21.5224C51.3082 23.0362 54.4318 25.5996 56.6294 28.8886C58.827 32.1776 60 36.0444 60 40C60 45.3043 57.8929 50.3914 54.1421 54.1421C50.3914 57.8929 45.3043 60 40 60ZM40 27.5C38.6827 27.4992 37.3883 27.8453 36.2473 28.5036C35.1062 29.1619 34.1587 30.1091 33.5 31.25C33.3191 31.5345 33.1977 31.8527 33.1429 32.1854C33.0882 32.5181 33.1014 32.8585 33.1816 33.186C33.2618 33.5135 33.4074 33.8213 33.6097 34.0911C33.812 34.3608 34.0668 34.5869 34.3587 34.7556C34.6506 34.9243 34.9736 35.0323 35.3083 35.0729C35.6431 35.1136 35.9825 35.0861 36.3064 34.9922C36.6302 34.8982 36.9316 34.7398 37.1926 34.5263C37.4536 34.3128 37.6687 34.0488 37.825 33.75C38.0453 33.3685 38.3624 33.052 38.7444 32.8324C39.1263 32.6129 39.5595 32.4983 40 32.5C40.6631 32.5 41.2989 32.7634 41.7678 33.2322C42.2366 33.7011 42.5 34.337 42.5 35C42.5 35.663 42.2366 36.2989 41.7678 36.7678C41.2989 37.2366 40.6631 37.5 40 37.5C39.337 37.5 38.7011 37.7634 38.2322 38.2322C37.7634 38.7011 37.5 39.337 37.5 40V42.5C37.5 43.163 37.7634 43.7989 38.2322 44.2678C38.7011 44.7366 39.337 45 40 45C40.6631 45 41.2989 44.7366 41.7678 44.2678C42.2366 43.7989 42.5 43.163 42.5 42.5V42.05C44.1534 41.4501 45.5434 40.2881 46.4269 38.7672C47.3105 37.2463 47.6314 35.4632 47.3335 33.7297C47.0357 31.9962 46.138 30.4225 44.7975 29.2838C43.457 28.145 41.7589 27.5136 40 27.5Z" fill="#F1AD00"/>
</svg>
