<svg width="44" height="54" viewBox="0 0 44 54" fill="none" xmlns="http://www.w3.org/2000/svg">
<path d="M0.666504 27.0002C0.666504 27.7074 0.947456 28.3857 1.44755 28.8858C1.94765 29.3859 2.62593 29.6668 3.33317 29.6668H23.5732L17.4398 35.7735C17.1899 36.0214 16.9915 36.3163 16.8561 36.6413C16.7207 36.9663 16.651 37.3148 16.651 37.6668C16.651 38.0189 16.7207 38.3674 16.8561 38.6924C16.9915 39.0173 17.1899 39.3123 17.4398 39.5602C17.6877 39.8101 17.9827 40.0085 18.3076 40.1439C18.6326 40.2793 18.9811 40.349 19.3332 40.349C19.6852 40.349 20.0337 40.2793 20.3587 40.1439C20.6837 40.0085 20.9786 39.8101 21.2265 39.5602L31.8932 28.8935C32.1359 28.6399 32.3263 28.3408 32.4532 28.0135C32.7199 27.3643 32.7199 26.6361 32.4532 25.9868C32.3263 25.6595 32.1359 25.3604 31.8932 25.1068L21.2265 14.4402C20.9779 14.1915 20.6827 13.9943 20.3578 13.8597C20.033 13.7252 19.6848 13.6559 19.3332 13.6559C18.9815 13.6559 18.6334 13.7252 18.3085 13.8597C17.9836 13.9943 17.6885 14.1915 17.4398 14.4402C17.1912 14.6888 16.994 14.984 16.8594 15.3088C16.7248 15.6337 16.6556 15.9819 16.6556 16.3335C16.6556 16.6851 16.7248 17.0333 16.8594 17.3582C16.994 17.683 17.1912 17.9782 17.4398 18.2268L23.5732 24.3335H3.33317C2.62593 24.3335 1.94765 24.6144 1.44755 25.1145C0.947456 25.6146 0.666504 26.2929 0.666504 27.0002ZM35.3332 0.333496H8.6665C6.54477 0.333496 4.50994 1.17635 3.00965 2.67664C1.50936 4.17693 0.666504 6.21176 0.666504 8.3335V16.3335C0.666504 17.0407 0.947456 17.719 1.44755 18.2191C1.94765 18.7192 2.62593 19.0002 3.33317 19.0002C4.04041 19.0002 4.71869 18.7192 5.21879 18.2191C5.71888 17.719 5.99984 17.0407 5.99984 16.3335V8.3335C5.99984 7.62625 6.28079 6.94798 6.78089 6.44788C7.28098 5.94778 7.95926 5.66683 8.6665 5.66683H35.3332C36.0404 5.66683 36.7187 5.94778 37.2188 6.44788C37.7189 6.94798 37.9998 7.62625 37.9998 8.3335V45.6668C37.9998 46.3741 37.7189 47.0524 37.2188 47.5525C36.7187 48.0525 36.0404 48.3335 35.3332 48.3335H8.6665C7.95926 48.3335 7.28098 48.0525 6.78089 47.5525C6.28079 47.0524 5.99984 46.3741 5.99984 45.6668V37.6668C5.99984 36.9596 5.71888 36.2813 5.21879 35.7812C4.71869 35.2811 4.04041 35.0002 3.33317 35.0002C2.62593 35.0002 1.94765 35.2811 1.44755 35.7812C0.947456 36.2813 0.666504 36.9596 0.666504 37.6668V45.6668C0.666504 47.7886 1.50936 49.8234 3.00965 51.3237C4.50994 52.824 6.54477 53.6668 8.6665 53.6668H35.3332C37.4549 53.6668 39.4897 52.824 40.99 51.3237C42.4903 49.8234 43.3332 47.7886 43.3332 45.6668V8.3335C43.3332 6.21176 42.4903 4.17693 40.99 2.67664C39.4897 1.17635 37.4549 0.333496 35.3332 0.333496Z" fill="#9E9E9E"/>
</svg>
