<svg width="80" height="80" viewBox="0 0 80 80" fill="none" xmlns="http://www.w3.org/2000/svg">
<rect width="80" height="80" rx="40" fill="#FFECF0"/>
<path d="M43.5248 40L54.2748 29.275C54.7456 28.8042 55.0101 28.1657 55.0101 27.5C55.0101 26.8342 54.7456 26.1957 54.2748 25.725C53.8041 25.2542 53.1656 24.9897 52.4998 24.9897C51.8341 24.9897 51.1956 25.2542 50.7248 25.725L39.9998 36.475L29.2748 25.725C28.8041 25.2542 28.1656 24.9897 27.4998 24.9897C26.8341 24.9897 26.1956 25.2542 25.7248 25.725C25.2541 26.1957 24.9896 26.8342 24.9896 27.5C24.9896 28.1657 25.2541 28.8042 25.7248 29.275L36.4748 40L25.7248 50.725C25.4905 50.9574 25.3045 51.2339 25.1776 51.5385C25.0507 51.8432 24.9854 52.1699 24.9854 52.5C24.9854 52.83 25.0507 53.1568 25.1776 53.4614C25.3045 53.7661 25.4905 54.0426 25.7248 54.275C25.9573 54.5093 26.2338 54.6953 26.5384 54.8222C26.8431 54.9491 27.1698 55.0145 27.4998 55.0145C27.8299 55.0145 28.1566 54.9491 28.4613 54.8222C28.7659 54.6953 29.0424 54.5093 29.2748 54.275L39.9998 43.525L50.7248 54.275C50.9573 54.5093 51.2338 54.6953 51.5384 54.8222C51.8431 54.9491 52.1698 55.0145 52.4998 55.0145C52.8299 55.0145 53.1566 54.9491 53.4613 54.8222C53.7659 54.6953 54.0424 54.5093 54.2748 54.275C54.5092 54.0426 54.6952 53.7661 54.8221 53.4614C54.949 53.1568 55.0143 52.83 55.0143 52.5C55.0143 52.1699 54.949 51.8432 54.8221 51.5385C54.6952 51.2339 54.5092 50.9574 54.2748 50.725L43.5248 40Z" fill="#EB4242"/>
</svg>
