<svg width="80" height="80" viewBox="0 0 80 80" fill="none" xmlns="http://www.w3.org/2000/svg">
<rect width="80" height="80" rx="40" fill="#E0F4FD"/>
<path d="M58 38C57.4696 38 56.9609 38.2107 56.5858 38.5858C56.2107 38.9609 56 39.4696 56 40C56.0238 43.7461 54.7406 47.3832 52.3713 50.2849C50.0021 53.1866 46.6951 55.1714 43.0199 55.8972C39.3448 56.6231 35.5316 56.0447 32.237 54.2616C28.9425 52.4785 26.3728 49.6023 24.9707 46.1285C23.5685 42.6547 23.4216 38.8006 24.5552 35.2302C25.6889 31.6597 28.0321 28.5963 31.1814 26.5676C34.3307 24.5388 38.0888 23.6718 41.8085 24.1158C45.5283 24.5598 48.9767 26.287 51.56 29H46.76C46.2296 29 45.7209 29.2107 45.3458 29.5858C44.9707 29.9609 44.76 30.4696 44.76 31C44.76 31.5304 44.9707 32.0391 45.3458 32.4142C45.7209 32.7893 46.2296 33 46.76 33H55.82C56.3504 33 56.8591 32.7893 57.2342 32.4142C57.6093 32.0391 57.82 31.5304 57.82 31V22C57.82 21.4696 57.6093 20.9609 57.2342 20.5858C56.8591 20.2107 56.3504 20 55.82 20C55.2896 20 54.7809 20.2107 54.4058 20.5858C54.0307 20.9609 53.82 21.4696 53.82 22V25.54C50.4893 22.3561 46.1615 20.4199 41.568 20.0587C36.9746 19.6974 32.3973 20.9333 28.6098 23.5574C24.8224 26.1815 22.0572 30.0328 20.7817 34.4604C19.5061 38.8879 19.7984 43.6201 21.6092 47.8571C23.42 52.094 26.6382 55.5757 30.7198 57.7137C34.8014 59.8517 39.496 60.5148 44.0101 59.591C48.5242 58.6671 52.5808 56.213 55.4943 52.6433C58.4077 49.0737 59.9993 44.6076 60 40C60 39.4696 59.7893 38.9609 59.4142 38.5858C59.0392 38.2107 58.5304 38 58 38Z" fill="#0096E0"/>
</svg>
