<svg width="24" height="24" viewBox="0 0 24 24" fill="none" xmlns="http://www.w3.org/2000/svg">
<path d="M3.99994 16L3.99994 15.41L3.70994 15.71C3.6167 15.8032 3.50601 15.8772 3.38419 15.9277C3.26237 15.9781 3.1318 16.0041 2.99994 16.0041C2.86808 16.0041 2.73752 15.9781 2.61569 15.9277C2.49387 15.8772 2.38318 15.8032 2.28994 15.71C2.1967 15.6168 2.12274 15.5061 2.07228 15.3842C2.02182 15.2624 1.99585 15.1319 1.99585 15C1.99585 14.7337 2.10164 14.4783 2.28994 14.29L4.28994 12.29C4.38291 12.1963 4.49351 12.1219 4.61537 12.0711C4.73723 12.0203 4.86793 11.9942 4.99994 11.9942C5.13195 11.9942 5.26266 12.0203 5.38452 12.0711C5.50638 12.1219 5.61698 12.1963 5.70994 12.29L7.70994 14.29C7.80367 14.383 7.87807 14.4936 7.92883 14.6154C7.9796 14.7373 8.00574 14.868 8.00574 15C8.00574 15.132 7.9796 15.2627 7.92883 15.3846C7.87807 15.5064 7.80367 15.617 7.70994 15.71C7.61698 15.8037 7.50638 15.8781 7.38452 15.9289C7.26266 15.9797 7.13196 16.0058 6.99994 16.0058C6.86793 16.0058 6.73723 15.9797 6.61537 15.9289C6.49351 15.8781 6.38291 15.8037 6.28994 15.71L5.99994 15.41L5.99994 16C5.99994 16.7956 6.31601 17.5587 6.87862 18.1213C7.44123 18.6839 8.20429 19 8.99994 19L10.9999 19C11.2652 19 11.5195 19.1054 11.707 19.2929C11.8946 19.4804 11.9999 19.7348 11.9999 20C11.9999 20.2652 11.8946 20.5196 11.707 20.7071C11.5195 20.8946 11.2652 21 10.9999 21L8.99994 21C7.67386 21 6.40209 20.4732 5.46441 19.5355C4.52673 18.5979 3.99994 17.3261 3.99994 16ZM17.9999 16L17.9999 15L10.9999 15C10.7347 15 10.4804 14.8946 10.2928 14.7071C10.1053 14.5196 9.99994 14.2652 9.99994 14L9.99994 7L8.99994 7C8.73473 7 8.48037 6.89464 8.29284 6.70711C8.1053 6.51957 7.99994 6.26522 7.99994 6C7.99994 5.73478 8.1053 5.48043 8.29284 5.29289C8.48037 5.10536 8.73473 5 8.99994 5L9.99994 5L9.99994 4C9.99994 3.73478 10.1053 3.48043 10.2928 3.29289C10.4804 3.10536 10.7347 3 10.9999 3C11.2652 3 11.5195 3.10536 11.707 3.29289C11.8946 3.48043 11.9999 3.73478 11.9999 4L11.9999 5L18.9999 5C19.2652 5 19.5195 5.10535 19.707 5.29289C19.8946 5.48043 19.9999 5.73478 19.9999 6L19.9999 13L20.9999 13C21.2652 13 21.5195 13.1054 21.707 13.2929C21.8946 13.4804 21.9999 13.7348 21.9999 14C21.9999 14.2652 21.8946 14.5196 21.7071 14.7071C21.5195 14.8946 21.2652 15 20.9999 15L19.9999 15L19.9999 16C19.9999 16.2652 19.8946 16.5196 19.7071 16.7071C19.5195 16.8946 19.2652 17 18.9999 17C18.7347 17 18.4804 16.8946 18.2928 16.7071C18.1053 16.5196 17.9999 16.2652 17.9999 16ZM17.9999 13L17.9999 7L11.9999 7L11.9999 13L17.9999 13Z" fill="#212121"/>
</svg>
