<svg width="48" height="48" viewBox="0 0 48 48" fill="none" xmlns="http://www.w3.org/2000/svg">
<rect width="48" height="48" rx="24" fill="#F9EAE7"/>
<path d="M15.492 25.3201C15.6001 25.493 15.7505 25.6356 15.9289 25.7343C16.1074 25.8329 16.3081 25.8845 16.512 25.8841C16.734 25.8905 16.9533 25.8351 17.1457 25.7242C17.3381 25.6133 17.4959 25.4512 17.6016 25.2559C17.7074 25.0606 17.7568 24.8399 17.7445 24.6182C17.7322 24.3964 17.6587 24.1825 17.532 24.0001C15.9619 21.5063 14.9507 18.702 14.568 15.7801C14.5422 15.6069 14.5546 15.4301 14.6043 15.2622C14.6541 15.0943 14.74 14.9393 14.856 14.8081C14.9685 14.6801 15.1069 14.5775 15.2621 14.5072C15.4172 14.4368 15.5856 14.4003 15.756 14.4001H19.356C19.6367 14.3944 19.9106 14.4874 20.1298 14.6628C20.3491 14.8382 20.4999 15.085 20.556 15.3601C20.556 15.6361 20.652 15.8881 20.712 16.1641V16.3201C20.8516 16.9498 21.0402 17.5677 21.276 18.1681L19.608 18.9601C19.4639 19.0271 19.3345 19.1221 19.2274 19.2395C19.1203 19.3569 19.0375 19.4944 18.984 19.6441C18.9229 19.7905 18.8915 19.9475 18.8915 20.1061C18.8915 20.2647 18.9229 20.4217 18.984 20.5681C19.104 20.8201 19.224 21.0721 19.368 21.3361C19.4464 21.4736 19.5512 21.5942 19.6764 21.6911C19.8017 21.7879 19.9448 21.859 20.0976 21.9002C20.2504 21.9415 20.4099 21.9521 20.5668 21.9315C20.7237 21.9109 20.875 21.8594 21.012 21.7801C21.2081 21.6677 21.3685 21.5022 21.4746 21.3026C21.5808 21.103 21.6284 20.8775 21.612 20.6521L22.296 20.4001C22.8389 20.15 23.2689 19.7064 23.502 19.156C23.735 18.6055 23.7543 17.988 23.556 17.4241C23.3622 16.9162 23.2058 16.3948 23.088 15.8641V15.7441C23.088 15.5041 22.992 15.2641 22.956 15.0481C22.8241 14.198 22.3922 13.4233 21.7384 12.8642C21.0846 12.3051 20.2522 11.9985 19.392 12.0001H15.792C15.2766 11.9926 14.7657 12.0959 14.2936 12.3029C13.8216 12.5099 13.3996 12.8159 13.056 13.2001C12.7145 13.5881 12.4606 14.0451 12.3116 14.54C12.1625 15.0349 12.1217 15.556 12.192 16.0681C12.6086 19.3548 13.7346 22.5117 15.492 25.3201V25.3201ZM33.024 25.0681L32.304 24.9361H32.208C31.6651 24.82 31.1316 24.6635 30.612 24.4681C30.0568 24.269 29.4478 24.2812 28.901 24.5026C28.3543 24.7239 27.9083 25.1388 27.648 25.6681L27.396 26.2201C26.5775 25.7466 25.806 25.1961 25.092 24.5761L35.652 14.0281C35.7639 13.9162 35.8526 13.7834 35.9132 13.6372C35.9737 13.491 36.0049 13.3343 36.0049 13.1761C36.0049 13.0179 35.9737 12.8612 35.9132 12.715C35.8526 12.5688 35.7639 12.436 35.652 12.3241C35.5401 12.2122 35.4073 12.1235 35.2611 12.0629C35.1149 12.0024 34.9582 11.9712 34.8 11.9712C34.6418 11.9712 34.4851 12.0024 34.3389 12.0629C34.1927 12.1235 34.0599 12.2122 33.948 12.3241L12.348 33.9241C12.2355 34.0357 12.1463 34.1684 12.0853 34.3146C12.0244 34.4608 11.993 34.6177 11.993 34.7761C11.993 34.9345 12.0244 35.0914 12.0853 35.2376C12.1463 35.3838 12.2355 35.5165 12.348 35.6281C12.4596 35.7406 12.5923 35.8299 12.7385 35.8908C12.8847 35.9517 13.0416 35.9831 13.2 35.9831C13.3584 35.9831 13.5153 35.9517 13.6615 35.8908C13.8077 35.8299 13.9404 35.7406 14.052 35.6281L19.56 30.1081C23.0071 33.2056 27.3126 35.1847 31.908 35.7841C32.0678 35.796 32.2282 35.796 32.388 35.7841C33.2713 35.7887 34.1255 35.4684 34.788 34.8841C35.1676 34.5446 35.4709 34.1283 35.6778 33.6629C35.8846 33.1975 35.9904 32.6934 35.988 32.1841V28.5841C35.9816 27.7443 35.6818 26.9332 35.1406 26.2912C34.5993 25.6491 33.8506 25.2164 33.024 25.0681V25.0681ZM33.6 32.2681C33.5998 32.4385 33.5633 32.6069 33.4929 32.762C33.4226 32.9172 33.32 33.0556 33.192 33.1681C33.0608 33.2841 32.9058 33.37 32.7379 33.4198C32.57 33.4695 32.3932 33.4819 32.22 33.4561C28.1435 32.9227 24.3218 31.1749 21.252 28.4401L23.376 26.3161C24.5995 27.3826 25.9644 28.275 27.432 28.9681C27.5784 29.0292 27.7354 29.0606 27.894 29.0606C28.0526 29.0606 28.2096 29.0292 28.356 28.9681C28.5057 28.9146 28.6432 28.8318 28.7606 28.7247C28.878 28.6176 28.973 28.4882 29.04 28.3441L29.784 26.6521C30.4101 26.8844 31.0517 27.0729 31.704 27.2161H31.836L32.664 27.3721C32.9347 27.4331 33.1759 27.586 33.3466 27.8047C33.5172 28.0235 33.6068 28.2947 33.6 28.5721V32.2681Z" fill="#E75F22"/>
</svg>
