<svg width="70" height="70" viewBox="0 0 70 70" fill="none" xmlns="http://www.w3.org/2000/svg">
<rect width="70" height="70" rx="35" fill="white"/>
<path d="M41.7681 28.7231C41.7681 24.7884 38.7393 21.6015 34.9999 21.6015C31.2604 21.6015 28.2316 24.7884 28.2316 28.7231C28.2316 32.6577 31.2604 35.8446 34.9999 35.8446C38.7393 35.8446 41.7681 32.6577 41.7681 28.7231Z" fill="#FE7341"/>
<path fill-rule="evenodd" clip-rule="evenodd" d="M21.4633 53.5956C15.7333 49.4189 12 42.6564 12 35C12 22.2631 22.3316 12 35 12C47.6684 12 58 22.2631 58 35C58 42.6566 54.2666 49.4192 48.5364 53.5958V53.6484H48.464C44.6749 56.3878 40.021 58 35 58C29.979 58 25.3251 56.3878 21.536 53.6484H21.4633V53.5956ZM16.4878 35C16.4878 24.8466 24.7418 16.5534 35 16.5534C45.2582 16.5534 53.5122 24.8466 53.5122 35C53.5122 39.8536 51.626 44.2822 48.5364 47.583V46.5269C48.5364 43.8563 45.8291 41.613 41.7681 40.3668C41.7681 42.254 41.2944 46.6515 38.0625 51.5654L36.6919 42.9661L38.2825 39.619C37.2334 39.4944 36.1335 39.4054 34.9999 39.4054C33.8662 39.4054 32.7663 39.4944 31.7172 39.619L33.3078 42.9661L31.9372 51.5654C28.7053 46.6515 28.2316 42.254 28.2316 40.3668C24.1875 41.613 21.4633 43.8563 21.4633 46.5269V47.5827C18.3738 44.2819 16.4878 39.8535 16.4878 35Z" fill="#ff6200"/>
</svg>
