<svg width="64" height="64" viewBox="0 0 64 64" fill="none" xmlns="http://www.w3.org/2000/svg">
<path d="M10.6665 32.0002C10.6665 32.7074 10.9475 33.3857 11.4476 33.8858C11.9476 34.3859 12.6259 34.6668 13.3332 34.6668H33.5732L27.4398 40.7735C27.1899 41.0214 26.9915 41.3163 26.8561 41.6413C26.7207 41.9663 26.651 42.3148 26.651 42.6668C26.651 43.0189 26.7207 43.3674 26.8561 43.6924C26.9915 44.0173 27.1899 44.3123 27.4398 44.5602C27.6877 44.8101 27.9827 45.0085 28.3076 45.1439C28.6326 45.2793 28.9811 45.349 29.3332 45.349C29.6852 45.349 30.0337 45.2793 30.3587 45.1439C30.6837 45.0085 30.9786 44.8101 31.2265 44.5602L41.8932 33.8935C42.1359 33.6399 42.3263 33.3408 42.4532 33.0135C42.7199 32.3643 42.7199 31.6361 42.4532 30.9868C42.3263 30.6595 42.1359 30.3604 41.8932 30.1068L31.2265 19.4402C30.9779 19.1915 30.6827 18.9943 30.3578 18.8597C30.033 18.7252 29.6848 18.6559 29.3332 18.6559C28.9815 18.6559 28.6334 18.7252 28.3085 18.8597C27.9836 18.9943 27.6885 19.1915 27.4398 19.4402C27.1912 19.6888 26.994 19.984 26.8594 20.3088C26.7248 20.6337 26.6556 20.9819 26.6556 21.3335C26.6556 21.6851 26.7248 22.0333 26.8594 22.3582C26.994 22.683 27.1912 22.9782 27.4398 23.2268L33.5732 29.3335H13.3332C12.6259 29.3335 11.9476 29.6144 11.4476 30.1145C10.9475 30.6146 10.6665 31.2929 10.6665 32.0002ZM45.3332 5.3335H18.6665C16.5448 5.3335 14.5099 6.17635 13.0096 7.67664C11.5094 9.17693 10.6665 11.2118 10.6665 13.3335V21.3335C10.6665 22.0407 10.9475 22.719 11.4476 23.2191C11.9476 23.7192 12.6259 24.0002 13.3332 24.0002C14.0404 24.0002 14.7187 23.7192 15.2188 23.2191C15.7189 22.719 15.9998 22.0407 15.9998 21.3335V13.3335C15.9998 12.6263 16.2808 11.948 16.7809 11.4479C17.281 10.9478 17.9593 10.6668 18.6665 10.6668H45.3332C46.0404 10.6668 46.7187 10.9478 47.2188 11.4479C47.7189 11.948 47.9998 12.6263 47.9998 13.3335V50.6668C47.9998 51.3741 47.7189 52.0524 47.2188 52.5525C46.7187 53.0525 46.0404 53.3335 45.3332 53.3335H18.6665C17.9593 53.3335 17.281 53.0525 16.7809 52.5525C16.2808 52.0524 15.9998 51.3741 15.9998 50.6668V42.6668C15.9998 41.9596 15.7189 41.2813 15.2188 40.7812C14.7187 40.2811 14.0404 40.0002 13.3332 40.0002C12.6259 40.0002 11.9476 40.2811 11.4476 40.7812C10.9475 41.2813 10.6665 41.9596 10.6665 42.6668V50.6668C10.6665 52.7886 11.5094 54.8234 13.0096 56.3237C14.5099 57.824 16.5448 58.6668 18.6665 58.6668H45.3332C47.4549 58.6668 49.4897 57.824 50.99 56.3237C52.4903 54.8234 53.3332 52.7886 53.3332 50.6668V13.3335C53.3332 11.2118 52.4903 9.17693 50.99 7.67664C49.4897 6.17635 47.4549 5.3335 45.3332 5.3335Z" fill="#9E9E9E"/>
</svg>
