<svg width="32" height="32" viewBox="0 0 32 32" fill="none" xmlns="http://www.w3.org/2000/svg">
<path d="M19.9236 12.361C19.9236 10.0801 18.1678 8.23261 16 8.23261C13.8322 8.23261 12.0764 10.0801 12.0764 12.361C12.0764 14.642 13.8322 16.4895 16 16.4895C18.1678 16.4895 19.9236 14.642 19.9236 12.361Z" fill="#9E9E9E"/>
<path fill-rule="evenodd" clip-rule="evenodd" d="M8.1527 26.7902C8.1527 26.7837 8.1496 26.7776 8.14437 26.7738C4.82735 24.3521 2.66675 20.4346 2.66675 15.9998C2.66675 8.61611 8.65609 2.6665 16.0001 2.6665C23.3441 2.6665 29.3334 8.61611 29.3334 15.9998C29.3334 20.4347 27.1727 24.3522 23.8556 26.774C23.8504 26.7778 23.8473 26.7838 23.8473 26.7903C23.8473 26.8015 23.8382 26.8105 23.8271 26.8105H23.8156C23.8089 26.8105 23.8024 26.8126 23.797 26.8165C21.6019 28.4009 18.9071 29.3332 16.0001 29.3332C13.093 29.3332 10.3983 28.4009 8.20321 26.8165C8.19778 26.8126 8.19125 26.8105 8.18455 26.8105H8.17299C8.16178 26.8105 8.1527 26.8014 8.1527 26.7902ZM5.26837 15.9998C5.26837 10.1138 10.0533 5.30614 16.0001 5.30614C21.9468 5.30614 26.7318 10.1138 26.7318 15.9998C26.7318 18.5945 25.802 20.9796 24.2528 22.8357C24.1122 23.0041 23.8473 22.9014 23.8473 22.6821C23.8473 21.2495 22.5034 20.029 20.4374 19.2823C20.1844 19.1909 19.9226 19.3824 19.904 19.6507C19.8266 20.7678 19.4866 22.6245 18.3118 24.7212C18.1333 25.0398 17.6706 24.9449 17.6131 24.5842L17.0004 20.7404C16.9877 20.6606 16.9995 20.5788 17.0342 20.5058L17.6639 19.1807C17.7813 18.9335 17.6215 18.6439 17.349 18.619C16.9112 18.579 16.4604 18.5537 16 18.5537C15.5396 18.5537 15.0888 18.579 14.651 18.619C14.3785 18.6439 14.2187 18.9335 14.3361 19.1807L14.9658 20.5058C15.0005 20.5788 15.0123 20.6606 14.9996 20.7404L14.3869 24.5842C14.3294 24.9449 13.8667 25.0398 13.6882 24.7212C12.5136 22.6249 12.1735 20.7686 12.096 19.6514C12.0774 19.3829 11.8153 19.1913 11.5622 19.2831C9.504 20.0299 8.1527 21.25 8.1527 22.6821C8.1527 22.9013 7.88786 23.004 7.74737 22.8356C6.19815 20.9795 5.26837 18.5945 5.26837 15.9998Z" fill="#9E9E9E"/>
</svg>
