<svg width="21" height="18" viewBox="0 0 21 18" fill="none" xmlns="http://www.w3.org/2000/svg">
<path d="M19.8866 9C20.3844 8.45236 20.6622 7.74005 20.6666 7C20.6666 6.20435 20.3506 5.44129 19.7879 4.87868C19.2253 4.31607 18.4623 4 17.6666 4H12.4866C12.6464 3.54818 12.6956 3.06466 12.63 2.58993C12.5645 2.11519 12.3863 1.66306 12.1101 1.27138C11.834 0.879704 11.468 0.559877 11.0429 0.338678C10.6178 0.117479 10.1459 0.00134551 9.66663 0H3.66663C2.87098 0 2.10791 0.316071 1.54531 0.87868C0.982697 1.44129 0.666626 2.20435 0.666626 3C0.671037 3.74005 0.948837 4.45236 1.44663 5C0.954671 5.55002 0.682694 6.26207 0.682694 7C0.682694 7.73793 0.954671 8.44998 1.44663 9C0.954671 9.55002 0.682694 10.2621 0.682694 11C0.682694 11.7379 0.954671 12.45 1.44663 13C0.948837 13.5476 0.671037 14.2599 0.666626 15C0.666626 15.7956 0.982697 16.5587 1.54531 17.1213C2.10791 17.6839 2.87098 18 3.66663 18H17.6666C18.2444 17.9969 18.809 17.8271 19.2925 17.5108C19.7761 17.1946 20.158 16.7455 20.3925 16.2174C20.6269 15.6894 20.7039 15.1049 20.6142 14.5341C20.5245 13.9633 20.2718 13.4306 19.8866 13C20.3786 12.45 20.6506 11.7379 20.6506 11C20.6506 10.2621 20.3786 9.55002 19.8866 9ZM9.66663 16H3.66663C3.40141 16 3.14706 15.8946 2.95952 15.7071C2.77198 15.5196 2.66663 15.2652 2.66663 15C2.66663 14.7348 2.77198 14.4804 2.95952 14.2929C3.14706 14.1054 3.40141 14 3.66663 14H9.66663C9.93184 14 10.1862 14.1054 10.3737 14.2929C10.5613 14.4804 10.6666 14.7348 10.6666 15C10.6666 15.2652 10.5613 15.5196 10.3737 15.7071C10.1862 15.8946 9.93184 16 9.66663 16ZM9.66663 12H3.66663C3.40141 12 3.14706 11.8946 2.95952 11.7071C2.77198 11.5196 2.66663 11.2652 2.66663 11C2.66663 10.7348 2.77198 10.4804 2.95952 10.2929C3.14706 10.1054 3.40141 10 3.66663 10H9.66663C9.93184 10 10.1862 10.1054 10.3737 10.2929C10.5613 10.4804 10.6666 10.7348 10.6666 11C10.6666 11.2652 10.5613 11.5196 10.3737 11.7071C10.1862 11.8946 9.93184 12 9.66663 12ZM9.66663 8H3.66663C3.40141 8 3.14706 7.89464 2.95952 7.70711C2.77198 7.51957 2.66663 7.26522 2.66663 7C2.66663 6.73478 2.77198 6.48043 2.95952 6.29289C3.14706 6.10536 3.40141 6 3.66663 6H9.66663C9.93184 6 10.1862 6.10536 10.3737 6.29289C10.5613 6.48043 10.6666 6.73478 10.6666 7C10.6666 7.26522 10.5613 7.51957 10.3737 7.70711C10.1862 7.89464 9.93184 8 9.66663 8ZM9.66663 4H3.66663C3.40141 4 3.14706 3.89464 2.95952 3.70711C2.77198 3.51957 2.66663 3.26522 2.66663 3C2.66663 2.73478 2.77198 2.48043 2.95952 2.29289C3.14706 2.10536 3.40141 2 3.66663 2H9.66663C9.93184 2 10.1862 2.10536 10.3737 2.29289C10.5613 2.48043 10.6666 2.73478 10.6666 3C10.6666 3.26522 10.5613 3.51957 10.3737 3.70711C10.1862 3.89464 9.93184 4 9.66663 4ZM18.3566 15.71C18.268 15.8035 18.1609 15.8776 18.0421 15.9275C17.9233 15.9774 17.7955 16.0021 17.6666 16H12.4866C12.7264 15.3549 12.7264 14.6451 12.4866 14H17.6666C17.9318 14 18.1862 14.1054 18.3737 14.2929C18.5613 14.4804 18.6666 14.7348 18.6666 15C18.6648 15.133 18.6364 15.2643 18.5832 15.3862C18.5299 15.5082 18.4529 15.6182 18.3566 15.71ZM18.3566 11.71C18.268 11.8035 18.1609 11.8776 18.0421 11.9275C17.9233 11.9774 17.7955 12.0021 17.6666 12H12.4866C12.7264 11.3549 12.7264 10.6451 12.4866 10H17.6666C17.9318 10 18.1862 10.1054 18.3737 10.2929C18.5613 10.4804 18.6666 10.7348 18.6666 11C18.6648 11.133 18.6364 11.2643 18.5832 11.3862C18.5299 11.5082 18.4529 11.6182 18.3566 11.71ZM18.3566 7.71C18.268 7.8035 18.1609 7.87756 18.0421 7.92748C17.9233 7.9774 17.7955 8.0021 17.6666 8H12.4866C12.7264 7.3549 12.7264 6.6451 12.4866 6H17.6666C17.9318 6 18.1862 6.10536 18.3737 6.29289C18.5613 6.48043 18.6666 6.73478 18.6666 7C18.6648 7.13302 18.6364 7.26433 18.5832 7.38624C18.5299 7.50815 18.4529 7.61822 18.3566 7.71Z" fill="#F26526"/>
</svg>
