<svg width="70" height="70" viewBox="0 0 70 70" fill="none" xmlns="http://www.w3.org/2000/svg">
<rect width="70" height="70" rx="35" fill="url(#paint0_linear_1858_46651)"/>
<path d="M41.7681 28.7231C41.7681 24.7884 38.7393 21.6015 34.9999 21.6015C31.2604 21.6015 28.2316 24.7884 28.2316 28.7231C28.2316 32.6577 31.2604 35.8446 34.9999 35.8446C38.7393 35.8446 41.7681 32.6577 41.7681 28.7231Z" fill="white"/>
<path fill-rule="evenodd" clip-rule="evenodd" d="M21.4633 53.6134C21.4633 53.6022 21.4579 53.5917 21.4489 53.5851C15.727 49.4076 12 42.65 12 35C12 22.2631 22.3316 12 35 12C47.6684 12 58 22.2631 58 35C58 42.6502 54.2728 49.4079 48.5508 53.5854C48.5418 53.5919 48.5364 53.6024 48.5364 53.6135C48.5364 53.6328 48.5208 53.6484 48.5016 53.6484H48.4817C48.4702 53.6484 48.459 53.652 48.4497 53.6588C44.6632 56.3919 40.0147 58 35 58C29.9854 58 25.3369 56.3919 21.5504 53.6588C21.541 53.652 21.5298 53.6484 21.5182 53.6484H21.4983C21.4789 53.6484 21.4633 53.6327 21.4633 53.6134ZM16.4878 35C16.4878 24.8466 24.7418 16.5534 35 16.5534C45.2582 16.5534 53.5122 24.8466 53.5122 35C53.5122 39.4758 51.9083 43.5901 49.2359 46.7919C48.9934 47.0823 48.5364 46.9052 48.5364 46.5269C48.5364 44.1476 46.3876 42.1076 43.0471 40.8095C42.4203 40.5659 41.7638 41.0472 41.6996 41.7167C41.5256 43.5337 40.9612 46.2614 39.3666 49.3413C38.9468 50.1522 37.8003 49.9203 37.6566 49.0186L36.7408 43.2725C36.709 43.0729 36.7384 42.8684 36.8251 42.6859L37.6847 40.8769C37.9783 40.2591 37.5787 39.5343 36.8966 39.4818C36.2774 39.4341 35.6441 39.4054 34.9999 39.4054C34.3556 39.4054 33.7223 39.4341 33.1031 39.4818C32.421 39.5343 32.0214 40.2591 32.315 40.8769L33.1746 42.6859C33.2614 42.8684 33.2908 43.0729 33.2589 43.2725L32.3431 49.0186C32.1994 49.9203 31.0529 50.1522 30.6331 49.3413C29.039 46.2623 28.4744 43.5353 28.3002 41.7183C28.236 41.0484 27.5786 40.567 26.9516 40.8116C23.6232 42.1098 21.4633 44.1489 21.4633 46.5269C21.4633 46.9051 21.0064 47.0821 20.7641 46.7918C18.0917 43.59 16.4878 39.4757 16.4878 35Z" fill="white"/>
<defs>
<linearGradient id="paint0_linear_1858_46651" x1="35" y1="0" x2="35" y2="70" gradientUnits="userSpaceOnUse">
<stop stop-color="#FEA17F" stop-opacity="0.9"/>
<stop offset="0.5" stop-color="#FF6200"/>
</linearGradient>
</defs>
</svg>
