<svg width="32" height="32" viewBox="0 0 32 32" fill="none" xmlns="http://www.w3.org/2000/svg">
<path d="M19.9236 12.361C19.9236 10.0801 18.1678 8.23261 15.9999 8.23261C13.8321 8.23261 12.0763 10.0801 12.0763 12.361C12.0763 14.642 13.8321 16.4895 15.9999 16.4895C18.1678 16.4895 19.9236 14.642 19.9236 12.361Z" fill="#FF6200"/>
<path fill-rule="evenodd" clip-rule="evenodd" d="M8.15264 26.7902C8.15264 26.7837 8.14954 26.7776 8.1443 26.7738C4.82729 24.3521 2.66669 20.4346 2.66669 15.9998C2.66669 8.61611 8.65603 2.6665 16 2.6665C23.344 2.6665 29.3334 8.61611 29.3334 15.9998C29.3334 20.4347 27.1727 24.3522 23.8555 26.774C23.8503 26.7778 23.8472 26.7838 23.8472 26.7903C23.8472 26.8015 23.8382 26.8105 23.827 26.8105H23.8155C23.8088 26.8105 23.8023 26.8126 23.7969 26.8165C21.6019 28.4009 18.9071 29.3332 16 29.3332C13.093 29.3332 10.3982 28.4009 8.20315 26.8165C8.19771 26.8126 8.19119 26.8105 8.18449 26.8105H8.17293C8.16172 26.8105 8.15264 26.8014 8.15264 26.7902ZM5.26831 15.9998C5.26831 10.1138 10.0533 5.30614 16 5.30614C21.9468 5.30614 26.7317 10.1138 26.7317 15.9998C26.7317 18.5945 25.8019 20.9796 24.2527 22.8357C24.1122 23.0041 23.8472 22.9014 23.8472 22.6821C23.8472 21.2495 22.5033 20.029 20.4373 19.2823C20.1843 19.1909 19.9226 19.3824 19.904 19.6507C19.8265 20.7678 19.4865 22.6245 18.3118 24.7212C18.1333 25.0398 17.6705 24.9449 17.613 24.5842L17.0004 20.7404C16.9877 20.6606 16.9994 20.5788 17.0341 20.5058L17.6638 19.1807C17.7812 18.9335 17.6214 18.6439 17.3489 18.619C16.9111 18.579 16.4604 18.5537 15.9999 18.5537C15.5395 18.5537 15.0887 18.579 14.6509 18.619C14.3784 18.6439 14.2186 18.9335 14.3361 19.1807L14.9658 20.5058C15.0005 20.5788 15.0122 20.6606 14.9995 20.7404L14.3869 24.5842C14.3294 24.9449 13.8666 25.0398 13.6881 24.7212C12.5136 22.6249 12.1735 20.7686 12.096 19.6514C12.0773 19.3829 11.8152 19.1913 11.5621 19.2831C9.50394 20.0299 8.15264 21.25 8.15264 22.6821C8.15264 22.9013 7.8878 23.004 7.74731 22.8356C6.19809 20.9795 5.26831 18.5945 5.26831 15.9998Z" fill="#FF6200"/>
</svg>
