<svg width="16" height="18" viewBox="0 0 16 18" fill="none" xmlns="http://www.w3.org/2000/svg">
<path d="M0.974463 14.7459H15.3125C15.5928 14.7459 15.7869 14.5518 15.7869 14.2715C15.7869 13.4198 15.0215 12.7083 14.3638 11.9645C13.4475 10.9403 13.523 8.85969 13.2427 6.89764C12.9624 4.78467 12.1215 3.10291 10.1595 2.607C9.99774 1.43192 9.1892 0.666504 8.1435 0.666504C7.0978 0.666504 6.28926 1.43192 6.12753 2.607C4.16549 3.10291 3.32461 4.78467 3.04432 6.89764C2.76403 8.85969 2.8395 10.9403 1.92315 11.9645C1.26555 12.7083 0.500122 13.4198 0.500122 14.2715C0.500122 14.5518 0.694176 14.7459 0.974463 14.7459ZM8.1435 17.3332C9.39405 17.3332 10.2457 16.4707 10.4613 15.425H5.8257C6.0413 16.4707 6.89295 17.3332 8.1435 17.3332Z" fill="#BDBDBD"/>
</svg>
