<svg width="20" height="20" viewBox="0 0 20 20" fill="none" xmlns="http://www.w3.org/2000/svg">
<path d="M9.60668 0C7.04307 0.00731219 4.58017 0.998914 2.72668 2.77V1C2.72668 0.734784 2.62133 0.48043 2.43379 0.292893C2.24626 0.105357 1.9919 0 1.72668 0C1.46147 0 1.20711 0.105357 1.01958 0.292893C0.832041 0.48043 0.726685 0.734784 0.726685 1V5.5C0.726685 5.76522 0.832041 6.01957 1.01958 6.20711C1.20711 6.39464 1.46147 6.5 1.72668 6.5H6.22669C6.4919 6.5 6.74626 6.39464 6.93379 6.20711C7.12133 6.01957 7.22669 5.76522 7.22669 5.5C7.22669 5.23478 7.12133 4.98043 6.93379 4.79289C6.74626 4.60536 6.4919 4.5 6.22669 4.5H3.82668C4.73839 3.53701 5.87519 2.81576 7.13481 2.40114C8.39444 1.98651 9.73737 1.89152 11.0428 2.1247C12.3483 2.35788 13.5753 2.91193 14.6135 3.73699C15.6516 4.56205 16.4685 5.63226 16.9904 6.85133C17.5123 8.0704 17.7231 9.4001 17.6036 10.7208C17.4841 12.0415 17.0382 13.3118 16.3059 14.4174C15.5737 15.5231 14.5781 16.4293 13.4087 17.0547C12.2393 17.68 10.9328 18.0049 9.60668 18C9.34147 18 9.08711 18.1054 8.89958 18.2929C8.71204 18.4804 8.60668 18.7348 8.60668 19C8.60668 19.2652 8.71204 19.5196 8.89958 19.7071C9.08711 19.8946 9.34147 20 9.60668 20C12.2588 20 14.8024 18.9464 16.6778 17.0711C18.5531 15.1957 19.6067 12.6522 19.6067 10C19.6067 7.34784 18.5531 4.8043 16.6778 2.92893C14.8024 1.05357 12.2588 0 9.60668 0ZM9.60668 6C9.34147 6 9.08711 6.10536 8.89958 6.29289C8.71204 6.48043 8.60668 6.73478 8.60668 7V10C8.60668 10.2652 8.71204 10.5196 8.89958 10.7071C9.08711 10.8946 9.34147 11 9.60668 11H11.6067C11.8719 11 12.1263 10.8946 12.3138 10.7071C12.5013 10.5196 12.6067 10.2652 12.6067 10C12.6067 9.73478 12.5013 9.48043 12.3138 9.29289C12.1263 9.10536 11.8719 9 11.6067 9H10.6067V7C10.6067 6.73478 10.5013 6.48043 10.3138 6.29289C10.1263 6.10536 9.8719 6 9.60668 6Z" fill="#F26526"/>
</svg>
