<svg width="48" height="48" viewBox="0 0 48 48" fill="none" xmlns="http://www.w3.org/2000/svg">
<rect width="48" height="48" rx="24" fill="#E0F4FD"/>
<path d="M34.8 22.8003C34.4817 22.8003 34.1765 22.9267 33.9515 23.1518C33.7264 23.3768 33.6 23.682 33.6 24.0003C33.6143 26.2479 32.8444 28.4302 31.4228 30.1712C30.0012 31.9123 28.017 33.1031 25.812 33.5386C23.6069 33.9741 21.3189 33.6271 19.3422 32.5572C17.3655 31.4874 15.8237 29.7617 14.9824 27.6774C14.1411 25.5931 14.053 23.2807 14.7331 21.1384C15.4133 18.9961 16.8193 17.1581 18.7088 15.9408C20.5984 14.7236 22.8533 14.2034 25.0851 14.4698C27.317 14.7362 29.386 15.7725 30.936 17.4003H28.056C27.7377 17.4003 27.4325 17.5267 27.2075 17.7518C26.9824 17.9768 26.856 18.282 26.856 18.6003C26.856 18.9186 26.9824 19.2238 27.2075 19.4488C27.4325 19.6739 27.7377 19.8003 28.056 19.8003H33.492C33.8103 19.8003 34.1155 19.6739 34.3405 19.4488C34.5656 19.2238 34.692 18.9186 34.692 18.6003V13.2003C34.692 12.882 34.5656 12.5768 34.3405 12.3518C34.1155 12.1267 33.8103 12.0003 33.492 12.0003C33.1737 12.0003 32.8685 12.1267 32.6435 12.3518C32.4184 12.5768 32.292 12.882 32.292 13.2003V15.3243C30.2936 13.414 27.6969 12.2522 24.9408 12.0355C22.1847 11.8187 19.4384 12.5603 17.1659 14.1347C14.8935 15.7092 13.2343 18.02 12.469 20.6765C11.7037 23.3331 11.8791 26.1724 12.9655 28.7145C14.052 31.2567 15.9829 33.3457 18.4319 34.6285C20.8808 35.9113 23.6976 36.3092 26.4061 35.7549C29.1145 35.2006 31.5485 33.7281 33.2966 31.5863C35.0446 29.4445 35.9996 26.7649 36 24.0003C36 23.682 35.8736 23.3768 35.6485 23.1518C35.4235 22.9267 35.1183 22.8003 34.8 22.8003Z" fill="#0096E0"/>
</svg>
