<svg width="24" height="24" viewBox="0 0 24 24" fill="none" xmlns="http://www.w3.org/2000/svg">
<rect width="24" height="24" rx="12" fill="#FDF7E0"/>
<path d="M13.8589 12.3803L12.6 11.6537V9C12.6 8.84087 12.5368 8.68826 12.4243 8.57574C12.3117 8.46321 12.1591 8.4 12 8.4C11.8409 8.4 11.6883 8.46321 11.5757 8.57574C11.4632 8.68826 11.4 8.84087 11.4 9V12C11.4 12.1053 11.4277 12.2088 11.4803 12.3001C11.533 12.3913 11.6088 12.4671 11.7 12.5197L13.2589 13.4197C13.3271 13.4592 13.4025 13.4848 13.4807 13.4951C13.5588 13.5054 13.6382 13.5002 13.7144 13.4798C13.7905 13.4594 13.8619 13.4242 13.9245 13.3763C13.987 13.3283 14.0395 13.2684 14.0789 13.2002C14.1183 13.1319 14.1439 13.0565 14.1541 12.9784C14.1644 12.9002 14.1592 12.8208 14.1387 12.7446C14.1183 12.6685 14.0831 12.5971 14.0351 12.5346C13.987 12.4721 13.9272 12.4196 13.8589 12.3803ZM12 6C10.8133 6 9.65328 6.35189 8.66658 7.01118C7.67989 7.67047 6.91085 8.60754 6.45673 9.7039C6.0026 10.8003 5.88378 12.0067 6.11529 13.1705C6.3468 14.3344 6.91825 15.4035 7.75736 16.2426C8.59648 17.0818 9.66558 17.6532 10.8295 17.8847C11.9933 18.1162 13.1997 17.9974 14.2961 17.5433C15.3925 17.0892 16.3295 16.3201 16.9888 15.3334C17.6481 14.3467 18 13.1867 18 12C17.9982 10.4092 17.3655 8.88415 16.2407 7.75931C15.1159 6.63448 13.5908 6.00177 12 6ZM12 16.8C11.0507 16.8 10.1226 16.5185 9.33327 15.9911C8.54391 15.4636 7.92868 14.714 7.56538 13.8369C7.20208 12.9598 7.10702 11.9947 7.29223 11.0636C7.47744 10.1325 7.9346 9.27718 8.60589 8.60589C9.27718 7.9346 10.1325 7.47744 11.0636 7.29223C11.9947 7.10702 12.9598 7.20208 13.8369 7.56538C14.714 7.92868 15.4636 8.54391 15.9911 9.33326C16.5185 10.1226 16.8 11.0507 16.8 12C16.7985 13.2726 16.2924 14.4926 15.3925 15.3925C14.4926 16.2924 13.2726 16.7985 12 16.8Z" fill="#F1AD00"/>
</svg>
